<svg width="724" height="821" viewBox="0 0 724 821" fill="none" xmlns="http://www.w3.org/2000/svg">
<g id="girl">
<path id="Vector" d="M499.679 649.994C499.136 650.316 498.577 650.609 498.003 650.871L365.564 711.361C364.587 711.808 363.53 712.058 362.456 712.097C361.382 712.134 360.311 711.961 359.305 711.585C358.298 711.21 357.375 710.64 356.588 709.907C355.801 709.175 355.166 708.295 354.719 707.317L346.999 690.411L347.571 690.15L346.999 690.411C346.1 688.436 346.021 686.186 346.779 684.153C347.537 682.119 349.071 680.471 351.044 679.566L483.482 619.076C487.549 617.218 492.173 616.99 496.403 618.44C500.633 619.888 504.146 622.902 506.221 626.864C508.296 630.824 508.775 635.43 507.557 639.733C506.341 644.036 503.522 647.707 499.679 649.994Z" fill="#6C63FF"/>
<path id="Vector_2" d="M422.117 805.741H267.227C265.057 805.739 262.977 804.875 261.442 803.341C259.909 801.806 259.045 799.726 259.042 797.556V778.972C259.045 776.801 259.909 774.721 261.442 773.187C262.977 771.652 265.057 770.789 267.227 770.787H422.117C424.287 770.789 426.367 771.652 427.902 773.187C429.435 774.721 430.299 776.801 430.302 778.972V797.556C430.299 799.726 429.435 801.806 427.902 803.341C426.367 804.875 424.287 805.739 422.117 805.741Z" fill="#6C63FF"/>
<path id="Vector_3" d="M500.685 799.338C499.81 799.338 498.941 799.197 498.11 798.921L351.031 750.355C348.971 749.672 347.266 748.2 346.291 746.262C345.315 744.325 345.147 742.078 345.825 740.017L351.652 722.369L352.25 722.567L351.652 722.369C352.332 720.308 353.804 718.602 355.743 717.626C357.682 716.649 359.928 716.484 361.989 717.164L509.07 765.73C511.128 766.412 512.833 767.884 513.81 769.822C514.786 771.76 514.953 774.007 514.275 776.068L508.449 793.717C507.907 795.35 506.867 796.772 505.474 797.78C504.081 798.79 502.405 799.334 500.685 799.338Z" fill="#6C63FF"/>
<path id="Vector_4" d="M306.063 806.021C305.92 806.021 305.775 806.017 305.63 806.008C304.557 805.956 303.503 805.691 302.532 805.228C301.562 804.766 300.693 804.115 299.975 803.316L287.53 789.512C286.08 787.899 285.327 785.776 285.439 783.609C285.551 781.442 286.518 779.409 288.128 777.953L354.137 718.432C355.749 716.979 357.873 716.224 360.04 716.336C362.208 716.448 364.242 717.418 365.696 719.03L378.141 732.833C379.592 734.446 380.344 736.569 380.231 738.736C380.119 740.903 379.152 742.937 377.543 744.393L311.534 803.914C310.036 805.273 308.085 806.023 306.063 806.021Z" fill="#6C63FF"/>
<path id="Vector_5" d="M543.416 806.036H407.279C405.839 806.042 404.425 805.667 403.178 804.949C401.93 804.232 400.895 803.199 400.176 801.952C399.456 800.707 399.078 799.293 399.08 797.853C399.084 796.414 399.467 795.003 400.191 793.758L505 612.21C505.719 610.966 506.752 609.934 507.997 609.215C509.241 608.497 510.652 608.118 512.089 608.118C513.526 608.118 514.937 608.497 516.181 609.215C517.425 609.934 518.458 610.966 519.177 612.21L587.245 730.117C591.687 737.811 594.025 746.54 594.025 755.423C594.025 764.308 591.687 773.036 587.245 780.729C582.804 788.423 576.415 794.812 568.72 799.255C561.027 803.697 552.3 806.036 543.416 806.036Z" fill="#2F2E41"/>
<g id="hair">
<path id="Vector_6" d="M550.162 450.126C551.945 442.836 555.252 436.008 559.862 430.088C564.472 424.169 570.283 419.291 576.913 415.777C583.713 412.283 591.204 410.346 598.846 410.11C606.486 409.872 614.085 411.34 621.087 414.406C628.259 417.479 634.628 422.159 639.703 428.085C644.777 434.012 648.421 441.026 650.354 448.585C652.343 456.19 652.618 464.142 651.16 471.866C649.369 480.047 645.897 487.767 640.964 494.534C635.989 501.738 630.14 508.275 624.771 515.178C619.382 522.093 614.474 529.373 610.082 536.962C596.852 559.828 588.463 585.169 585.436 611.415C584.411 619.34 584.218 627.352 584.859 635.319C586.304 650.79 592.297 665.943 606.052 674.361C613.365 678.837 621.805 681.148 630.155 682.765C639.526 684.75 649.118 685.5 658.683 684.995C674.854 683.845 691.036 677.096 700.428 663.353C702.507 660.292 704.135 656.949 705.26 653.424C706.008 651.105 702.363 650.111 701.618 652.419C696.644 667.842 681.548 677.348 666.269 680.246C656.755 681.84 647.04 681.832 637.529 680.219C628.889 678.928 619.984 677.142 612.066 673.33C604.87 669.974 598.901 664.456 594.993 657.544C591.459 650.873 589.32 643.552 588.704 636.027C587.022 619.552 589.762 602.496 593.866 586.56C598.258 569.505 604.996 553.141 613.885 537.938C618.325 530.342 623.296 523.068 628.76 516.171C634.172 509.35 639.944 502.791 644.824 495.564C649.641 488.747 653.035 481.029 654.803 472.87C656.306 465.042 656.166 456.987 654.392 449.216C652.681 441.547 649.332 434.338 644.575 428.084C639.817 421.83 633.764 416.679 626.829 412.983C613.221 405.805 596.641 404.086 582.085 409.376C567.959 414.587 556.46 425.165 550.089 438.808C548.558 442.119 547.362 445.573 546.52 449.121C545.963 451.486 549.604 452.494 550.162 450.126Z" fill="#2F2E41"/>
<path id="Vector_7" d="M562.436 453.197C564.803 446.448 569.575 440.808 575.839 437.355C582.104 433.903 589.419 432.881 596.39 434.483C598.754 435.037 599.764 431.395 597.394 430.841C589.454 428.893 581.071 430.009 573.918 433.965C566.764 437.923 561.363 444.43 558.793 452.192C558.001 454.496 561.649 455.485 562.436 453.197Z" fill="#2F2E41"/>
<path id="Vector_8" d="M556.639 471.04C555.702 471.04 554.776 470.849 553.914 470.477L536.562 463.019C535.728 462.66 534.971 462.14 534.336 461.488C533.702 460.837 533.202 460.066 532.864 459.221C532.528 458.376 532.361 457.473 532.372 456.564C532.385 455.655 532.576 454.757 532.935 453.921C533.294 453.085 533.814 452.329 534.465 451.695C535.117 451.06 535.888 450.56 536.731 450.223C537.576 449.885 538.479 449.719 539.389 449.73C540.298 449.743 541.196 449.933 542.032 450.293L559.384 457.752C560.85 458.381 562.052 459.498 562.79 460.912C563.528 462.327 563.754 463.953 563.431 465.516C563.108 467.077 562.256 468.48 561.02 469.487C559.782 470.493 558.234 471.042 556.639 471.04Z" fill="#2F2E41"/>
</g>
<path id="Vector_9" d="M519.627 820.81C517.574 820.806 515.596 820.03 514.087 818.638C512.579 817.244 511.649 815.334 511.483 813.287L499.7 668.158C499.515 665.87 499.781 663.568 500.485 661.384C501.189 659.199 502.316 657.174 503.803 655.425C505.288 653.676 507.104 652.238 509.146 651.19C511.189 650.143 513.417 649.509 515.705 649.323C517.993 649.138 520.295 649.403 522.479 650.107C524.664 650.811 526.687 651.938 528.436 653.425C530.185 654.911 531.624 656.727 532.672 658.769C533.718 660.812 534.353 663.041 534.539 665.329L546.321 810.458C546.493 812.621 545.802 814.764 544.397 816.419C542.991 818.072 540.988 819.101 538.826 819.279L520.302 820.783C520.077 820.801 519.851 820.81 519.627 820.81Z" fill="#6C63FF"/>
<g id="face">
<path id="Vector_10" d="M512.088 590.082C547.553 590.082 576.303 561.331 576.303 525.863C576.303 490.396 547.553 461.644 512.088 461.644C476.623 461.644 447.873 490.396 447.873 525.863C447.873 561.331 476.623 590.082 512.088 590.082Z" fill="#6C63FF"/>
<path id="Vector_11" d="M479.619 509.917H466.056V512.435H479.619V509.917Z" fill="#2F2E41"/>
<path id="Vector_12" d="M531.225 503.719L523.357 452.734C523.028 450.602 519.775 449.334 516.092 449.903L500.81 452.261C497.127 452.829 494.407 455.019 494.736 457.151L502.269 505.969C497.589 509.485 494.176 514.426 492.542 520.047C490.908 525.669 491.144 531.669 493.21 537.147C495.277 542.624 499.066 547.283 504.007 550.424C508.947 553.564 514.773 555.016 520.611 554.563C526.447 554.11 531.979 551.774 536.375 547.908C540.772 544.042 543.795 538.854 544.991 533.124C546.188 527.392 545.492 521.428 543.01 516.126C540.529 510.823 536.393 506.47 531.225 503.719Z" fill="#CCCCCC"/>
<path id="Vector_13" d="M518.492 539.518C525.069 539.518 530.403 534.185 530.403 527.606C530.403 521.026 525.069 515.694 518.492 515.694C511.913 515.694 506.58 521.026 506.58 527.606C506.58 534.185 511.913 539.518 518.492 539.518Z" fill="#FF6584"/>
<path id="Vector_14" d="M453.831 547.161C466.282 546.538 476.657 540.156 480.289 537.044" stroke="black" stroke-width="2"/>
</g>
</g>
</svg>
