<svg width="36" height="53" viewBox="0 0 36 53" fill="none" xmlns="http://www.w3.org/2000/svg">
<path d="M20.0724 2.35949C20.0567 4.12344 20.013 16.6784 19.9756 31.4728C19.9662 34.7568 19.9506 37.8335 19.9412 38.305L19.9225 39.1626L19.6665 38.9634C18.3866 37.9514 16.7539 37.3377 14.7779 37.1182C14.2503 37.0613 12.6582 37.0369 12.3054 37.0816C12.2149 37.0938 11.9652 37.1223 11.7498 37.1426C9.5458 37.3824 7.24507 38.1871 5.42196 39.3536C4.76015 39.7804 4.47919 39.9836 3.92977 40.4591C1.37617 42.6539 0.327262 45.4258 1.12331 47.8848C1.74454 49.8032 3.57076 51.3355 6.07753 52.0345C7.15142 52.3353 7.97244 52.4369 9.29918 52.441C10.654 52.445 11.5125 52.3475 12.8112 52.0345C13.3419 51.9085 14.3314 51.6118 14.6811 51.4696C16.6072 50.7014 17.8746 49.9617 19.1577 48.8602C20.0006 48.1368 20.8934 47.0678 21.3398 46.2468C21.6707 45.6412 21.9548 44.8812 22.0453 44.3569C22.0703 44.2106 22.0921 41.6907 22.114 35.6591C22.1296 30.985 22.1546 25.238 22.1639 22.8888L22.1858 18.6089L22.345 18.5317C23.5781 17.9424 25.8101 18.5642 28.1077 20.1412C30.1868 21.5719 31.9818 23.4903 32.8434 25.2014C33.0745 25.6607 33.1775 25.9371 33.3336 26.5548C33.3991 26.7987 33.5739 27.3433 33.7269 27.762C34.089 28.7537 34.1452 28.9854 34.1265 29.4731C34.0921 30.3957 33.6239 31.3021 32.2659 33.0782L31.5042 34.074L31.5261 34.4113C31.5823 35.3543 31.9132 36.2159 32.4064 36.7036C32.7592 37.0491 33.14 37.1589 33.3523 36.9678C33.6052 36.7483 34.601 34.3178 35.0474 32.8343C35.4564 31.4768 35.6936 30.3225 35.8247 29.0544C35.8747 28.5545 35.8747 27.0263 35.8247 26.5548C35.6905 25.2989 35.3814 24.1081 34.9069 23.0229C34.6322 22.3848 34.1796 21.5272 33.9642 21.2224C33.755 20.9297 33.0183 20.0274 31.9007 18.6902C29.038 15.2721 27.5365 13.3049 26.2659 11.3134C25.2763 9.75669 24.652 8.60647 22.91 5.12328C21.961 3.22927 21.4896 2.37575 20.9121 1.49784C20.5313 0.916634 20.1785 0.441099 20.1317 0.441099C20.1004 0.441099 20.088 0.867861 20.0724 2.35949Z" fill="white"/>
</svg>
