<svg width="632" height="268" viewBox="0 0 632 268" fill="none" xmlns="http://www.w3.org/2000/svg">
<g id="speaker">
<rect id="Rectangle 21" x="195.222" y="0.330444" width="21.0907" height="21.111" fill="black"/>
<rect id="Rectangle 22" x="429.714" y="0.330444" width="21.0907" height="21.111" fill="black"/>
<rect id="Rectangle 6" x="0.207764" y="21.4417" width="631.792" height="246.558" fill="black"/>
<circle id="Ellipse 9" cx="135.309" cy="144.721" r="84.4379" fill="#6B6B6B"/>
<circle id="Ellipse 13" cx="135.309" cy="144.721" r="69.7633" fill="#ACAF00"/>
<circle id="smallLeft" cx="136.619" cy="144.721" r="52.9303" fill="#868905" stroke="black" stroke-width="0.5"/>
<rect id="Rectangle 7" x="65.5453" y="126.144" width="139.527" height="37.1527" fill="#6B6B6B"/>
<rect id="Rectangle 9" x="266.554" y="68.2039" width="11.611" height="11.611" fill="#FF0000"/>
<rect id="Rectangle 10" x="310.298" y="68.2039" width="11.611" height="11.611" fill="#FFC700"/>
<rect id="Rectangle 11" x="354.043" y="68.2039" width="11.611" height="11.611" fill="#0066FF"/>
<rect id="Rectangle 12" x="246.341" y="101.418" width="139.527" height="37.1527" fill="#ACA9A9"/>
<rect id="Rectangle 14" x="284.592" y="118.12" width="63.0231" height="16.0479" fill="white" stroke="black"/>
<circle id="Ellipse 10" cx="500.08" cy="144.721" r="84.4379" fill="#6B6B6B"/>
<circle id="Ellipse 12" cx="499.477" cy="144.721" r="69.7633" fill="#ACAF00"/>
<circle id="smallRight" cx="499.477" cy="144.721" r="52.9303" fill="#868905" stroke="black" stroke-width="0.5"/>
<rect id="Rectangle 8" x="429.714" y="126.145" width="139.527" height="37.1527" fill="#6B6B6B"/>
<rect id="Rectangle 13" width="106.878" height="2.58013" transform="matrix(1 0 0 -1 262.665 110.04)" fill="#020202"/>
<rect id="Rectangle 15" x="256.117" y="166.215" width="20.8744" height="20.8944" fill="#C4C4C4"/>
<rect id="Rectangle 18" x="261.629" y="171.732" width="9.85007" height="9.85952" fill="black"/>
<rect id="Rectangle 16" x="310.298" y="166.215" width="20.8744" height="20.8944" fill="#C4C4C4"/>
<rect id="Rectangle 17" x="359.105" y="166.215" width="20.8744" height="20.8944" fill="#C4C4C4"/>
<rect id="Rectangle 19" x="315.81" y="171.732" width="9.85007" height="9.85952" fill="black"/>
<rect id="Rectangle 20" x="364.617" y="171.732" width="9.85007" height="9.85952" fill="black"/>
</g>
</svg>
